{
  "accessors": [
    {
      "bufferView": 2,
      "componentType": 5126,
      "count": 1118,
      "max": [
        0.6095678806304932,
        1.8395063877105713,
        0.8366169333457947
      ],
      "min": [
        -0.8366169929504395,
        0.1604938507080078,
        -0.8366169333457947
      ],
      "type": "VEC3"
    },
    {
      "bufferView": 2,
      "byteOffset": 13416,
      "componentType": 5126,
      "count": 1118,
      "max": [
        0.9960241913795471,
        1.0,
        0.9963814616203308
      ],
      "min": [
        -0.9963682889938354,
        -1.0,
        -0.9963814616203308
      ],
      "type": "VEC3"
    },
    {
      "bufferView": 1,
      "componentType": 5126,
      "count": 1118,
      "max": [
        0.8750003576278687,
        1.0000003576278687
      ],
      "min": [
        0.1249999925494194,
        0.0
      ],
      "type": "VEC2"
    },
    {
      "bufferView": 0,
      "componentType": 5125,
      "count": 3912,
      "type": "SCALAR"
    },
    {
      "bufferView": 2,
      "byteOffset": 26832,
      "componentType": 5126,
      "count": 616,
      "max": [
        0.7891442775726318,
        1.834067463874817,
        0.9652661681175232
      ],
      "min": [
        -0.7891442775726318,
        0.26335281133651733,
        -0.9652661681175232
      ],
      "type": "VEC3"
    },
    {
      "bufferView": 2,
      "byteOffset": 34224,
      "componentType": 5126,
      "count": 616,
      "max": [
        1.0,
        0.9951987266540527,
        1.0
      ],
      "min": [
        -1.0,
        -0.9933764934539795,
        -1.0
      ],
      "type": "VEC3"
    },
    {
      "bufferView": 1,
      "byteOffset": 8944,
      "componentType": 5126,
      "count": 616,
      "max": [
        0.875,
        1.0000001192092896
      ],
      "min": [
        0.125,
        0.0
      ],
      "type": "VEC2"
    },
    {
      "bufferView": 0,
      "byteOffset": 15648,
      "componentType": 5125,
      "count": 1902,
      "type": "SCALAR"
    },
    {
      "bufferView": 2,
      "byteOffset": 41616,
      "componentType": 5126,
      "count": 46,
      "max": [
        0.749417245388031,
        1.7288398742675781,
        0.9358547925949097
      ],
      "min": [
        0.044127896428108215,
        0.5611652135848999,
        -0.9358547925949097
      ],
      "type": "VEC3"
    },
    {
      "bufferView": 2,
      "byteOffset": 42168,
      "componentType": 5126,
      "count": 46,
      "max": [
        1.0,
        0.0,
        0.35243627429008484
      ],
      "min": [
        0.8062323927879333,
        -0.5333579182624817,
        -0.35243627429008484
      ],
      "type": "VEC3"
    },
    {
      "bufferView": 1,
      "byteOffset": 13872,
      "componentType": 5126,
      "count": 46,
      "max": [
        0.6082110404968262,
        0.7500000596046448
      ],
      "min": [
        0.3968467712402344,
        0.6596786975860596
      ],
      "type": "VEC2"
    },
    {
      "bufferView": 0,
      "byteOffset": 23256,
      "componentType": 5125,
      "count": 132,
      "type": "SCALAR"
    },
    {
      "bufferView": 2,
      "byteOffset": 42720,
      "componentType": 5126,
      "count": 260,
      "max": [
        1.0,
        0.20000000298023224,
        1.0
      ],
      "min": [
        -1.0,
        0.0,
        -1.0
      ],
      "type": "VEC3"
    },
    {
      "bufferView": 2,
      "byteOffset": 45840,
      "componentType": 5126,
      "count": 260,
      "max": [
        1.0,
        1.0,
        1.0
      ],
      "min": [
        -1.0,
        -1.0,
        -1.0
      ],
      "type": "VEC3"
    },
    {
      "bufferView": 1,
      "byteOffset": 14240,
      "componentType": 5126,
      "count": 260,
      "max": [
        1.0,
        1.0
      ],
      "min": [
        0.0,
        0.01000000536441803
      ],
      "type": "VEC2"
    },
    {
      "bufferView": 0,
      "byteOffset": 23784,
      "componentType": 5125,
      "count": 744,
      "type": "SCALAR"
    }
  ],
  "asset": {
    "extras": {
      "author": "Izzy (https://sketchfab.com/RigiT)",
      "license": "CC-BY-4.0 (http://creativecommons.org/licenses/by/4.0/)",
      "source": "https://sketchfab.com/3d-models/3december-day-19-robot-06edf47bb0c14b91adbce07ed7e98f39",
      "title": "3December - Day 19 - Robot"
    },
    "generator": "Sketchfab-12.65.0",
    "version": "2.0"
  },
  "bufferViews": [
    {
      "buffer": 0,
      "byteLength": 26760,
      "name": "floatBufferViews",
      "target": 34963
    },
    {
      "buffer": 0,
      "byteLength": 16320,
      "byteOffset": 26760,
      "byteStride": 8,
      "name": "floatBufferViews",
      "target": 34962
    },
    {
      "buffer": 0,
      "byteLength": 48960,
      "byteOffset": 43080,
      "byteStride": 12,
      "name": "floatBufferViews",
      "target": 34962
    }
  ],
  "buffers": [
    {
      "byteLength": 92040,
      "uri": "scene.bin"
    }
  ],
  "materials": [
    {
      "doubleSided": true,
      "name": "Material",
      "pbrMetallicRoughness": {
        "baseColorFactor": [
          0.8,
          0.8,
          0.8,
          1.0
        ],
        "metallicFactor": 0.0,
        "roughnessFactor": 0.112707
      }
    },
    {
      "doubleSided": true,
      "name": "Black",
      "pbrMetallicRoughness": {
        "baseColorFactor": [
          0.0,
          0.0,
          0.0,
          1.0
        ],
        "metallicFactor": 0.0,
        "roughnessFactor": 0.146409
      }
    },
    {
      "doubleSided": true,
      "emissiveFactor": [
        0.0,
        1.0,
        1.0
      ],
      "name": "Bright_Blue"
    },
    {
      "doubleSided": true,
      "name": "Metal",
      "pbrMetallicRoughness": {
        "roughnessFactor": 0.18772985778725895
      }
    }
  ],
  "meshes": [
    {
      "name": "Object_0",
      "primitives": [
        {
          "attributes": {
            "NORMAL": 1,
            "POSITION": 0,
            "TEXCOORD_0": 2
          },
          "indices": 3,
          "material": 0,
          "mode": 4
        }
      ]
    },
    {
      "name": "Object_1",
      "primitives": [
        {
          "attributes": {
            "NORMAL": 5,
            "POSITION": 4,
            "TEXCOORD_0": 6
          },
          "indices": 7,
          "material": 1,
          "mode": 4
        }
      ]
    },
    {
      "name": "Object_2",
      "primitives": [
        {
          "attributes": {
            "NORMAL": 9,
            "POSITION": 8,
            "TEXCOORD_0": 10
          },
          "indices": 11,
          "material": 2,
          "mode": 4
        }
      ]
    },
    {
      "name": "Object_3",
      "primitives": [
        {
          "attributes": {
            "NORMAL": 13,
            "POSITION": 12,
            "TEXCOORD_0": 14
          },
          "indices": 15,
          "material": 3,
          "mode": 4
        }
      ]
    }
  ],
  "nodes": [
    {
      "children": [
        1
      ],
      "matrix": [
        1.0,
        0.0,
        0.0,
        0.0,
        0.0,
        2.220446049250313e-16,
        -1.0,
        0.0,
        0.0,
        1.0,
        2.220446049250313e-16,
        0.0,
        0.0,
        0.0,
        0.0,
        1.0
      ],
      "name": "Sketchfab_model"
    },
    {
      "children": [
        2
      ],
      "name": "root"
    },
    {
      "children": [
        3,
        7
      ],
      "matrix": [
        1.0,
        0.0,
        0.0,
        0.0,
        0.0,
        2.220446049250313e-16,
        1.0,
        0.0,
        0.0,
        -1.0,
        2.220446049250313e-16,
        0.0,
        0.0,
        0.0,
        0.0,
        1.0
      ],
      "name": "GLTF_SceneRootNode"
    },
    {
      "children": [
        4,
        5,
        6
      ],
      "matrix": [
        1.0,
        0.0,
        0.0,
        0.0,
        0.0,
        1.0,
        0.0,
        0.0,
        0.0,
        0.0,
        1.0,
        0.0,
        0.0,
        0.24617692828178406,
        0.0,
        1.0
      ],
      "name": "Cube_2"
    },
    {
      "mesh": 0,
      "name": "Object_4"
    },
    {
      "mesh": 1,
      "name": "Object_5"
    },
    {
      "mesh": 2,
      "name": "Object_6"
    },
    {
      "children": [
        8
      ],
      "name": "Cylinder_3"
    },
    {
      "mesh": 3,
      "name": "Object_8"
    }
  ],
  "scene": 0,
  "scenes": [
    {
      "name": "Sketchfab_Scene",
      "nodes": [
        0
      ]
    }
  ]
}
